<svg width="72" height="68" viewBox="0 0 72 68" fill="none" xmlns="http://www.w3.org/2000/svg">
<mask id="path-1-inside-1_28_797" fill="white">
<path d="M36 21.25C33.33 21.25 30.7199 21.9978 28.4998 23.3988C26.2797 24.7998 24.5494 26.791 23.5276 29.1208C22.5059 31.4505 22.2385 34.0141 22.7594 36.4874C23.2803 38.9607 24.5661 41.2325 26.4541 43.0156C28.3421 44.7987 30.7475 46.0131 33.3663 46.505C35.985 46.997 38.6994 46.7445 41.1662 45.7795C43.633 44.8144 45.7414 43.1802 47.2248 41.0835C48.7082 38.9868 49.5 36.5217 49.5 34C49.4963 30.6196 48.0728 27.3786 45.5418 24.9883C43.0109 22.5979 39.5793 21.2535 36 21.25ZM36 42.5C34.22 42.5 32.4799 42.0015 30.9999 41.0675C29.5198 40.1335 28.3663 38.806 27.6851 37.2528C27.0039 35.6996 26.8257 33.9906 27.1729 32.3417C27.5202 30.6929 28.3774 29.1783 29.636 27.9896C30.8947 26.8008 32.4984 25.9913 34.2442 25.6633C35.99 25.3354 37.7996 25.5037 39.4442 26.147C41.0887 26.7904 42.4943 27.8798 43.4832 29.2777C44.4722 30.6755 45 32.3189 45 34C45 36.2543 44.0518 38.4163 42.364 40.0104C40.6761 41.6045 38.387 42.5 36 42.5ZM60.75 34.5737C60.7613 34.1912 60.7613 33.8087 60.75 33.4262L64.9463 28.475C65.1663 28.215 65.3186 27.9099 65.3909 27.5842C65.4632 27.2584 65.4535 26.9212 65.3625 26.5997C64.6746 24.1575 63.6456 21.8127 62.3025 19.627C62.1267 19.341 61.8825 19.0977 61.5896 18.9165C61.2966 18.7352 60.9629 18.6211 60.615 18.5831L53.9438 17.8819C53.6663 17.6056 53.385 17.34 53.1 17.085L52.3125 10.7684C52.272 10.4396 52.1507 10.1243 51.9583 9.8476C51.7659 9.57089 51.5078 9.34047 51.2044 9.17469C48.8892 7.90858 46.4067 6.93768 43.8216 6.28734C43.4809 6.2018 43.1237 6.19305 42.7788 6.2618C42.4339 6.33055 42.111 6.47487 41.8359 6.68312L36.6075 10.625H35.3925L30.15 6.66984C29.8748 6.46204 29.5517 6.3182 29.2068 6.24992C28.8619 6.18164 28.5048 6.19081 28.1644 6.27672C25.579 6.92757 23.0964 7.89938 20.7816 9.16672C20.4787 9.3328 20.2211 9.56336 20.0292 9.84005C19.8373 10.1167 19.7165 10.4319 19.6763 10.7605L18.9338 17.0717C18.6413 17.3356 18.36 17.6012 18.09 17.8686L11.4019 18.5938C11.0537 18.632 10.7199 18.7465 10.4269 18.9282C10.1339 19.11 9.88991 19.3538 9.71438 19.6403C8.37379 21.8268 7.34579 24.1715 6.65719 26.613C6.56662 26.9347 6.55736 27.272 6.63015 27.5978C6.70294 27.9235 6.85575 28.2285 7.07626 28.4883L11.25 33.4262V34.5737L7.06219 39.525C6.84217 39.785 6.68987 40.0901 6.61757 40.4158C6.54527 40.7416 6.55499 41.0788 6.64594 41.4003C7.33385 43.8425 8.36289 46.1873 9.70594 48.373C9.8818 48.659 10.1259 48.9023 10.4189 49.0835C10.7118 49.2648 11.0455 49.3789 11.3934 49.4169L18.0647 50.1181C18.3441 50.3944 18.6253 50.66 18.9084 50.915L19.6875 57.2316C19.728 57.5604 19.8493 57.8757 20.0417 58.1524C20.2341 58.4291 20.4923 58.6595 20.7956 58.8253C23.1108 60.0914 25.5933 61.0623 28.1784 61.7127C28.5191 61.7982 28.8763 61.8069 29.2212 61.7382C29.5661 61.6695 29.8891 61.5251 30.1641 61.3169L35.3925 57.375C35.7975 57.3856 36.2025 57.3856 36.6075 57.375L41.85 61.3381C42.1253 61.5459 42.4483 61.6898 42.7932 61.758C43.1381 61.8263 43.4952 61.8172 43.8356 61.7312C46.4214 61.0816 48.9042 60.1097 51.2184 58.8413C51.5213 58.6752 51.7789 58.4446 51.9708 58.1679C52.1627 57.8912 52.2836 57.5761 52.3238 57.2475L53.0663 50.9469C53.3588 50.6848 53.64 50.4192 53.91 50.15L60.5981 49.4062C60.9463 49.368 61.2802 49.2535 61.5731 49.0718C61.8661 48.89 62.1101 48.6462 62.2856 48.3597C63.6262 46.1732 64.6542 43.8285 65.3428 41.387C65.4334 41.0653 65.4427 40.728 65.3699 40.4022C65.2971 40.0765 65.1443 39.7715 64.9238 39.5117L60.75 34.5737ZM56.2219 32.8472C56.2697 33.6151 56.2697 34.3849 56.2219 35.1528C56.1884 35.6785 56.3628 36.1973 56.7113 36.6084L60.7022 41.318C60.2442 42.6925 59.6579 44.0259 58.95 45.3023L52.5938 45.9823C52.0402 46.0404 51.5291 46.2902 51.1594 46.6836C50.618 47.2586 50.0414 47.8032 49.4325 48.3145C49.016 48.6637 48.7514 49.1464 48.69 49.6692L47.9841 55.667C46.6327 56.3359 45.2208 56.8897 43.7653 57.3219L38.7759 53.5527C38.3767 53.2514 37.8807 53.0874 37.3697 53.0878H37.2347C36.4216 53.133 35.6065 53.133 34.7934 53.0878C34.2368 53.0562 33.6875 53.2209 33.2522 53.55L28.2516 57.3219C26.7962 56.8894 25.3844 56.3356 24.0328 55.667L23.3128 49.6719C23.2514 49.1491 22.9868 48.6664 22.5703 48.3172C21.9614 47.8059 21.3848 47.2613 20.8434 46.6862C20.4737 46.2929 19.9626 46.043 19.4091 45.985L13.0584 45.3156C12.3502 44.0393 11.7639 42.7059 11.3063 41.3313L15.2972 36.6191C15.6457 36.2079 15.8201 35.6892 15.7866 35.1634C15.7388 34.3956 15.7388 33.6257 15.7866 32.8578C15.8201 32.3321 15.6457 31.8134 15.2972 31.4022L11.3063 26.682C11.7642 25.3075 12.3506 23.9741 13.0584 22.6977L19.4063 22.0177C19.9598 21.9596 20.4709 21.7098 20.8406 21.3164C21.382 20.7414 21.9586 20.1968 22.5675 19.6855C22.9857 19.336 23.2513 18.8522 23.3128 18.3281L24.0188 12.333C25.3702 11.6641 26.782 11.1103 28.2375 10.6781L33.2269 14.4473C33.6622 14.7765 34.2115 14.9412 34.7681 14.9095C35.5812 14.8644 36.3963 14.8644 37.2094 14.9095C37.766 14.9412 38.3153 14.7765 38.7506 14.4473L43.7484 10.6781C45.2038 11.1106 46.6156 11.6644 47.9672 12.333L48.6872 18.3281C48.7486 18.8509 49.0132 19.3336 49.4297 19.6828C50.0386 20.1941 50.6152 20.7387 51.1566 21.3137C51.5263 21.7071 52.0374 21.957 52.5909 22.015L58.9416 22.6817C59.6498 23.9581 60.2362 25.2915 60.6938 26.6661L56.7028 31.3783C56.351 31.7929 56.1764 32.317 56.2134 32.8472H56.2219Z"/>
</mask>
<path d="M36 21.25C33.33 21.25 30.7199 21.9978 28.4998 23.3988C26.2797 24.7998 24.5494 26.791 23.5276 29.1208C22.5059 31.4505 22.2385 34.0141 22.7594 36.4874C23.2803 38.9607 24.5661 41.2325 26.4541 43.0156C28.3421 44.7987 30.7475 46.0131 33.3663 46.505C35.985 46.997 38.6994 46.7445 41.1662 45.7795C43.633 44.8144 45.7414 43.1802 47.2248 41.0835C48.7082 38.9868 49.5 36.5217 49.5 34C49.4963 30.6196 48.0728 27.3786 45.5418 24.9883C43.0109 22.5979 39.5793 21.2535 36 21.25ZM36 42.5C34.22 42.5 32.4799 42.0015 30.9999 41.0675C29.5198 40.1335 28.3663 38.806 27.6851 37.2528C27.0039 35.6996 26.8257 33.9906 27.1729 32.3417C27.5202 30.6929 28.3774 29.1783 29.636 27.9896C30.8947 26.8008 32.4984 25.9913 34.2442 25.6633C35.99 25.3354 37.7996 25.5037 39.4442 26.147C41.0887 26.7904 42.4943 27.8798 43.4832 29.2777C44.4722 30.6755 45 32.3189 45 34C45 36.2543 44.0518 38.4163 42.364 40.0104C40.6761 41.6045 38.387 42.5 36 42.5ZM60.75 34.5737C60.7613 34.1912 60.7613 33.8087 60.75 33.4262L64.9463 28.475C65.1663 28.215 65.3186 27.9099 65.3909 27.5842C65.4632 27.2584 65.4535 26.9212 65.3625 26.5997C64.6746 24.1575 63.6456 21.8127 62.3025 19.627C62.1267 19.341 61.8825 19.0977 61.5896 18.9165C61.2966 18.7352 60.9629 18.6211 60.615 18.5831L53.9438 17.8819C53.6663 17.6056 53.385 17.34 53.1 17.085L52.3125 10.7684C52.272 10.4396 52.1507 10.1243 51.9583 9.8476C51.7659 9.57089 51.5078 9.34047 51.2044 9.17469C48.8892 7.90858 46.4067 6.93768 43.8216 6.28734C43.4809 6.2018 43.1237 6.19305 42.7788 6.2618C42.4339 6.33055 42.111 6.47487 41.8359 6.68312L36.6075 10.625H35.3925L30.15 6.66984C29.8748 6.46204 29.5517 6.3182 29.2068 6.24992C28.8619 6.18164 28.5048 6.19081 28.1644 6.27672C25.579 6.92757 23.0964 7.89938 20.7816 9.16672C20.4787 9.3328 20.2211 9.56336 20.0292 9.84005C19.8373 10.1167 19.7165 10.4319 19.6763 10.7605L18.9338 17.0717C18.6413 17.3356 18.36 17.6012 18.09 17.8686L11.4019 18.5938C11.0537 18.632 10.7199 18.7465 10.4269 18.9282C10.1339 19.11 9.88991 19.3538 9.71438 19.6403C8.37379 21.8268 7.34579 24.1715 6.65719 26.613C6.56662 26.9347 6.55736 27.272 6.63015 27.5978C6.70294 27.9235 6.85575 28.2285 7.07626 28.4883L11.25 33.4262V34.5737L7.06219 39.525C6.84217 39.785 6.68987 40.0901 6.61757 40.4158C6.54527 40.7416 6.55499 41.0788 6.64594 41.4003C7.33385 43.8425 8.36289 46.1873 9.70594 48.373C9.8818 48.659 10.1259 48.9023 10.4189 49.0835C10.7118 49.2648 11.0455 49.3789 11.3934 49.4169L18.0647 50.1181C18.3441 50.3944 18.6253 50.66 18.9084 50.915L19.6875 57.2316C19.728 57.5604 19.8493 57.8757 20.0417 58.1524C20.2341 58.4291 20.4923 58.6595 20.7956 58.8253C23.1108 60.0914 25.5933 61.0623 28.1784 61.7127C28.5191 61.7982 28.8763 61.8069 29.2212 61.7382C29.5661 61.6695 29.8891 61.5251 30.1641 61.3169L35.3925 57.375C35.7975 57.3856 36.2025 57.3856 36.6075 57.375L41.85 61.3381C42.1253 61.5459 42.4483 61.6898 42.7932 61.758C43.1381 61.8263 43.4952 61.8172 43.8356 61.7312C46.4214 61.0816 48.9042 60.1097 51.2184 58.8413C51.5213 58.6752 51.7789 58.4446 51.9708 58.1679C52.1627 57.8912 52.2836 57.5761 52.3238 57.2475L53.0663 50.9469C53.3588 50.6848 53.64 50.4192 53.91 50.15L60.5981 49.4062C60.9463 49.368 61.2802 49.2535 61.5731 49.0718C61.8661 48.89 62.1101 48.6462 62.2856 48.3597C63.6262 46.1732 64.6542 43.8285 65.3428 41.387C65.4334 41.0653 65.4427 40.728 65.3699 40.4022C65.2971 40.0765 65.1443 39.7715 64.9238 39.5117L60.75 34.5737ZM56.2219 32.8472C56.2697 33.6151 56.2697 34.3849 56.2219 35.1528C56.1884 35.6785 56.3628 36.1973 56.7113 36.6084L60.7022 41.318C60.2442 42.6925 59.6579 44.0259 58.95 45.3023L52.5938 45.9823C52.0402 46.0404 51.5291 46.2902 51.1594 46.6836C50.618 47.2586 50.0414 47.8032 49.4325 48.3145C49.016 48.6637 48.7514 49.1464 48.69 49.6692L47.9841 55.667C46.6327 56.3359 45.2208 56.8897 43.7653 57.3219L38.7759 53.5527C38.3767 53.2514 37.8807 53.0874 37.3697 53.0878H37.2347C36.4216 53.133 35.6065 53.133 34.7934 53.0878C34.2368 53.0562 33.6875 53.2209 33.2522 53.55L28.2516 57.3219C26.7962 56.8894 25.3844 56.3356 24.0328 55.667L23.3128 49.6719C23.2514 49.1491 22.9868 48.6664 22.5703 48.3172C21.9614 47.8059 21.3848 47.2613 20.8434 46.6862C20.4737 46.2929 19.9626 46.043 19.4091 45.985L13.0584 45.3156C12.3502 44.0393 11.7639 42.7059 11.3063 41.3313L15.2972 36.6191C15.6457 36.2079 15.8201 35.6892 15.7866 35.1634C15.7388 34.3956 15.7388 33.6257 15.7866 32.8578C15.8201 32.3321 15.6457 31.8134 15.2972 31.4022L11.3063 26.682C11.7642 25.3075 12.3506 23.9741 13.0584 22.6977L19.4063 22.0177C19.9598 21.9596 20.4709 21.7098 20.8406 21.3164C21.382 20.7414 21.9586 20.1968 22.5675 19.6855C22.9857 19.336 23.2513 18.8522 23.3128 18.3281L24.0188 12.333C25.3702 11.6641 26.782 11.1103 28.2375 10.6781L33.2269 14.4473C33.6622 14.7765 34.2115 14.9412 34.7681 14.9095C35.5812 14.8644 36.3963 14.8644 37.2094 14.9095C37.766 14.9412 38.3153 14.7765 38.7506 14.4473L43.7484 10.6781C45.2038 11.1106 46.6156 11.6644 47.9672 12.333L48.6872 18.3281C48.7486 18.8509 49.0132 19.3336 49.4297 19.6828C50.0386 20.1941 50.6152 20.7387 51.1566 21.3137C51.5263 21.7071 52.0374 21.957 52.5909 22.015L58.9416 22.6817C59.6498 23.9581 60.2362 25.2915 60.6938 26.6661L56.7028 31.3783C56.351 31.7929 56.1764 32.317 56.2134 32.8472H56.2219Z" fill="#9C2ED9" stroke="black" stroke-width="2" mask="url(#path-1-inside-1_28_797)"/>
</svg>
