<svg width="31" height="19" viewBox="0 0 31 19" fill="none" xmlns="http://www.w3.org/2000/svg">
<path d="M10.45 3.675C10.3 4.09167 10.0833 4.45 9.8 4.75C9.51667 5.03333 9.09167 5.175 8.525 5.175C8.25833 5.175 8.01667 5.125 7.8 5.025C7.58333 4.90833 7.40833 4.71667 7.275 4.45C7.175 4.26667 7.125 4.06667 7.125 3.85C7.125 3.58333 7.19167 3.34167 7.325 3.125C7.475 2.90833 7.68333 2.79167 7.95 2.775C7.98333 2.775 8.01667 2.775 8.05 2.775C8.1 2.75833 8.13333 2.75 8.15 2.75C8.41667 2.75 8.625 2.85 8.775 3.05C8.825 3.11667 8.85 3.18333 8.85 3.25C8.85 3.36667 8.78333 3.49167 8.65 3.625C8.53333 3.74167 8.41667 3.86667 8.3 4C8.2 4.13333 8.175 4.28333 8.225 4.45C8.325 4.75 8.50833 4.9 8.775 4.9C9.025 4.9 9.29167 4.76667 9.575 4.5C9.875 4.21667 10.1083 3.825 10.275 3.325C10.325 3.225 10.35 3.10833 10.35 2.975C10.35 2.725 10.25 2.46667 10.05 2.2C9.85 1.93333 9.59167 1.74167 9.275 1.625C9.14167 1.575 8.99167 1.53333 8.825 1.5C8.675 1.46667 8.525 1.45 8.375 1.45C7.775 1.45 7.18333 1.625 6.6 1.975C6.01667 2.325 5.61667 2.80833 5.4 3.425C5.31667 3.64167 5.25833 3.85 5.225 4.05C5.19167 4.25 5.175 4.43333 5.175 4.6C5.175 5.08333 5.3 5.49167 5.55 5.825C5.8 6.15833 6.11667 6.45833 6.5 6.725C6.9 6.99167 7.31667 7.26667 7.75 7.55C8.18333 7.81667 8.59167 8.125 8.975 8.475C9.375 8.825 9.7 9.25 9.95 9.75C10.2 10.25 10.325 10.8667 10.325 11.6C10.325 12.0167 10.275 12.4833 10.175 13C10.075 13.5167 9.90833 14.0917 9.675 14.725C9.39167 15.4917 8.96667 16.1833 8.4 16.8C7.85 17.4333 7.20833 17.9333 6.475 18.3C5.75833 18.6667 5 18.85 4.2 18.85C3.65 18.85 3.1 18.75 2.55 18.55C1.73333 18.25 1.18333 17.8667 0.9 17.4C0.6 16.95 0.45 16.4917 0.45 16.025C0.45 15.7083 0.491667 15.4083 0.575 15.125C0.658333 14.8417 0.733333 14.5917 0.8 14.375C0.916667 14.0417 1.15 13.7 1.5 13.35C1.86667 13 2.275 12.7083 2.725 12.475C3.175 12.225 3.59167 12.1 3.975 12.1C4.14167 12.1 4.3 12.125 4.45 12.175C4.76667 12.2583 4.925 12.5917 4.925 13.175C4.925 13.3417 4.90833 13.5083 4.875 13.675C4.84167 13.8417 4.79167 14.0167 4.725 14.2C4.60833 14.5167 4.43333 14.775 4.2 14.975C3.98333 15.175 3.69167 15.275 3.325 15.275C3.14167 15.275 2.96667 15.2667 2.8 15.25C2.65 15.2167 2.53333 15.1333 2.45 15C2.43333 14.9667 2.41667 14.9333 2.4 14.9C2.4 14.8667 2.4 14.8333 2.4 14.8C2.4 14.5333 2.53333 14.3083 2.8 14.125C2.93333 14.025 3.05833 14.025 3.175 14.125C3.29167 14.225 3.40833 14.3333 3.525 14.45C3.65833 14.55 3.8 14.5833 3.95 14.55C4.21667 14.4833 4.39167 14.3333 4.475 14.1C4.55833 13.8667 4.6 13.6083 4.6 13.325C4.6 13.2417 4.6 13.1583 4.6 13.075C4.6 12.9917 4.59167 12.9083 4.575 12.825C4.55833 12.5417 4.41667 12.4 4.15 12.4C3.95 12.4 3.7 12.4833 3.4 12.65C3.11667 12.8167 2.825 13.025 2.525 13.275C2.24167 13.5083 1.99167 13.75 1.775 14C1.55833 14.2333 1.425 14.4167 1.375 14.55C1.225 14.9667 1.15 15.3583 1.15 15.725C1.15 16.6083 1.61667 17.225 2.55 17.575C2.65 17.6083 2.76667 17.625 2.9 17.625C3.23333 17.625 3.68333 17.55 4.25 17.4C4.83333 17.25 5.45 17.0083 6.1 16.675C6.75 16.3417 7.35833 15.8917 7.925 15.325C8.49167 14.7583 8.925 14.0583 9.225 13.225C9.375 12.825 9.48333 12.4583 9.55 12.125C9.61667 11.7917 9.65 11.4833 9.65 11.2C9.65 10.5667 9.50833 10.0417 9.225 9.625C8.95833 9.19167 8.6 8.83333 8.15 8.55C7.71667 8.26667 7.25833 8.00833 6.775 7.775C6.29167 7.54167 5.825 7.3 5.375 7.05C4.94167 6.78333 4.58333 6.475 4.3 6.125C4.03333 5.75833 3.9 5.3 3.9 4.75C3.9 4.55 3.91667 4.33333 3.95 4.1C4 3.85 4.075 3.59167 4.175 3.325C4.50833 2.39167 4.99167 1.725 5.625 1.325C6.275 0.925 6.95833 0.725 7.675 0.725C7.975 0.725 8.275 0.758333 8.575 0.824999C8.875 0.874999 9.16667 0.949999 9.45 1.05C9.93333 1.21667 10.2583 1.425 10.425 1.675C10.6083 1.925 10.7 2.2 10.7 2.5C10.7 2.68333 10.675 2.875 10.625 3.075C10.5917 3.25833 10.5333 3.45833 10.45 3.675ZM19.8307 14.05C19.8807 14 19.9473 13.975 20.0307 13.975C20.1473 13.975 20.2057 14.0333 20.2057 14.15C20.2057 14.2167 20.164 14.3167 20.0807 14.45C20.014 14.5833 19.864 14.7417 19.6307 14.925C19.3973 15.125 19.1557 15.3083 18.9057 15.475C18.6723 15.6417 18.3473 15.725 17.9307 15.725C17.4807 15.725 17.1223 15.6417 16.8557 15.475C16.6057 15.3083 16.4223 15.125 16.3057 14.925C16.2057 14.7083 16.139 14.5417 16.1057 14.425C15.9057 14.575 15.6973 14.775 15.4807 15.025C15.2807 15.2583 14.989 15.475 14.6057 15.675C14.2223 15.8583 13.6723 15.95 12.9557 15.95C12.5557 15.95 12.189 15.8583 11.8557 15.675C11.539 15.475 11.3807 15.05 11.3807 14.4C11.3807 14.2167 11.389 14.025 11.4057 13.825C11.439 13.6083 11.489 13.375 11.5557 13.125C11.7557 12.3417 11.989 11.725 12.2557 11.275C12.5223 10.825 12.9223 10.4917 13.4557 10.275C13.789 10.1417 14.1973 10.0167 14.6807 9.9C15.164 9.78333 15.589 9.68333 15.9557 9.6C16.0723 9.56667 16.1723 9.45833 16.2557 9.275C16.3557 9.075 16.464 8.89167 16.5807 8.725C16.6473 8.64167 16.7223 8.575 16.8057 8.525C16.889 8.45833 16.9807 8.425 17.0807 8.425C17.164 8.425 17.2723 8.46667 17.4057 8.55C17.5223 8.63333 17.5973 8.79167 17.6307 9.025C17.6807 9.25833 17.7057 9.475 17.7057 9.675C17.689 9.775 17.6473 9.9 17.5807 10.05C17.5307 10.1833 17.489 10.3333 17.4557 10.5C17.4223 10.7167 17.339 11.025 17.2057 11.425C17.0723 11.825 17.0057 12.1583 17.0057 12.425C17.0057 12.6583 16.989 12.95 16.9557 13.3C16.9223 13.6333 16.9223 13.8667 16.9557 14C17.139 14.4 17.3973 14.6667 17.7307 14.8C18.064 14.9167 18.3557 14.95 18.6057 14.9C18.789 14.8667 18.9973 14.7583 19.2307 14.575C19.464 14.3917 19.664 14.2167 19.8307 14.05ZM15.7807 11.2C15.7473 11.0667 15.664 10.925 15.5307 10.775C15.414 10.625 15.264 10.55 15.0807 10.55C15.0473 10.55 14.9807 10.5667 14.8807 10.6C14.5973 10.7 14.2973 10.8917 13.9807 11.175C13.664 11.4417 13.389 11.7917 13.1557 12.225C12.9223 12.6583 12.789 13.1667 12.7557 13.75C12.7557 13.9167 12.8057 14.1333 12.9057 14.4C13.0223 14.6667 13.1723 14.8917 13.3557 15.075C13.539 15.2583 13.7223 15.3083 13.9057 15.225C14.3057 15.0583 14.639 14.825 14.9057 14.525C15.189 14.2083 15.4223 13.825 15.6057 13.375C15.689 13.1583 15.7473 12.9333 15.7807 12.7C15.8307 12.45 15.8557 12.2167 15.8557 12C15.8557 11.8 15.8473 11.6333 15.8307 11.5C15.814 11.35 15.7973 11.25 15.7807 11.2ZM25.1297 5.9C25.013 5.9 24.8964 5.88333 24.7797 5.85C24.6797 5.8 24.5797 5.74167 24.4797 5.675C24.263 5.575 24.1547 5.35833 24.1547 5.025C24.1547 4.875 24.188 4.70833 24.2547 4.525C24.338 4.34167 24.463 4.16667 24.6297 4C24.7464 3.88333 24.888 3.825 25.0547 3.825C25.2047 3.825 25.3464 3.88333 25.4797 4C25.5464 4.06667 25.588 4.175 25.6047 4.325C25.638 4.45833 25.6547 4.60833 25.6547 4.775C25.6547 4.975 25.638 5.175 25.6047 5.375C25.5714 5.55833 25.513 5.69167 25.4297 5.775C25.313 5.85833 25.213 5.9 25.1297 5.9ZM22.5797 15.725C21.963 15.725 21.538 15.5833 21.3047 15.3C21.0714 15.0167 20.9547 14.675 20.9547 14.275C20.9547 14.0917 20.9714 13.9083 21.0047 13.725C21.038 13.5417 21.0797 13.3583 21.1297 13.175C20.963 13.475 20.7047 13.825 20.3547 14.225C20.0047 14.6083 19.6797 14.9167 19.3797 15.15C19.313 15.2 19.2464 15.225 19.1797 15.225C19.0797 15.225 19.0297 15.1667 19.0297 15.05C19.0297 14.9167 19.0797 14.8 19.1797 14.7C19.8797 13.9667 20.413 13.375 20.7797 12.925C21.1464 12.4583 21.4297 12.0667 21.6297 11.75C21.8297 11.4333 22.0214 11.1417 22.2047 10.875C22.3547 10.3917 22.488 9.925 22.6047 9.475C22.738 9.00833 22.938 8.53333 23.2047 8.05C23.288 7.9 23.4547 7.825 23.7047 7.825C23.8714 7.825 24.0214 7.86667 24.1547 7.95C24.288 8.03333 24.3547 8.175 24.3547 8.375C24.3547 8.475 24.3297 8.59167 24.2797 8.725C24.0964 9.24167 23.8964 9.68333 23.6797 10.05C23.4797 10.4 23.213 10.85 22.8797 11.4C22.5297 11.9667 22.2464 12.5167 22.0297 13.05C21.8297 13.5833 21.7297 14.0333 21.7297 14.4C21.7297 14.6333 21.7797 14.825 21.8797 14.975C21.9964 15.125 22.163 15.2 22.3797 15.2C22.8464 15.2167 23.2047 15.1417 23.4547 14.975C23.7047 14.7917 23.913 14.6167 24.0797 14.45C24.2964 14.2167 24.4797 14 24.6297 13.8C24.7964 13.6 24.9464 13.425 25.0797 13.275C25.1797 13.175 25.2297 13.1917 25.2297 13.325C25.2297 13.4083 25.2047 13.5167 25.1547 13.65C25.1214 13.7833 25.0797 13.8833 25.0297 13.95C24.863 14.1833 24.663 14.4417 24.4297 14.725C24.213 15.0083 23.9547 15.25 23.6547 15.45C23.3547 15.6333 22.9964 15.725 22.5797 15.725ZM30.1189 14.65C30.1856 14.5833 30.2773 14.55 30.3939 14.55C30.5106 14.55 30.5689 14.6 30.5689 14.7C30.5689 14.8167 30.4356 15 30.1689 15.25C29.9023 15.5 29.6106 15.7 29.2939 15.85C28.9773 16 28.6773 16.1083 28.3939 16.175C28.2606 16.1917 28.0773 16.1417 27.8439 16.025C27.6273 15.925 27.4939 15.8167 27.4439 15.7C27.3773 15.55 27.3273 15.3833 27.2939 15.2C27.2606 15 27.2439 14.7917 27.2439 14.575C27.2439 14.0583 27.3023 13.525 27.4189 12.975C27.5356 12.425 27.6439 11.95 27.7439 11.55C27.5439 11.6167 27.3189 11.65 27.0689 11.65C26.8356 11.65 26.6273 11.6667 26.4439 11.7C26.3273 11.8667 26.2273 12.0583 26.1439 12.275C26.0606 12.475 25.9439 12.7 25.7939 12.95C25.5273 13.3833 25.2273 13.8167 24.8939 14.25C24.5773 14.6667 24.2523 15.0083 23.9189 15.275C23.5856 15.5417 23.2606 15.675 22.9439 15.675C22.7273 15.675 22.6189 15.6167 22.6189 15.5C22.6189 15.3833 22.7606 15.275 23.0439 15.175C23.4439 15.025 23.8523 14.7083 24.2689 14.225C24.6856 13.7417 25.0606 13.2417 25.3939 12.725C25.5606 12.475 25.6689 12.25 25.7189 12.05C25.7689 11.8333 25.7939 11.6667 25.7939 11.55C25.7939 11.55 25.7189 11.4667 25.5689 11.3C25.4356 11.1167 25.3689 10.9417 25.3689 10.775C25.3689 10.4083 25.4856 10.075 25.7189 9.775C25.9689 9.475 26.2273 9.36667 26.4939 9.45C26.6773 9.5 26.7939 9.58333 26.8439 9.7C26.9106 9.81667 26.9439 9.94167 26.9439 10.075C26.9439 10.225 26.9189 10.3833 26.8689 10.55C26.8189 10.7 26.7689 10.8333 26.7189 10.95C26.7689 11.0167 26.8773 11.05 27.0439 11.05C27.2939 11.05 27.5689 11 27.8689 10.9C28.0856 10.5833 28.2939 10.3333 28.4939 10.15C28.6939 9.96667 28.8773 9.89167 29.0439 9.925C29.1606 9.94167 29.2689 9.98333 29.3689 10.05C29.4689 10.1167 29.5189 10.2417 29.5189 10.425C29.5189 10.575 29.4439 10.8 29.2939 11.1C29.0439 11.55 28.8106 12.0417 28.5939 12.575C28.3773 13.0917 28.2106 13.5667 28.0939 14C27.9773 14.4167 27.9273 14.7083 27.9439 14.875C27.9773 15.0917 28.0356 15.2333 28.1189 15.3C28.2189 15.3667 28.3273 15.4 28.4439 15.4C28.5273 15.4 28.6106 15.3917 28.6939 15.375C28.7939 15.3417 28.8856 15.3167 28.9689 15.3C29.2189 15.2167 29.4273 15.125 29.5939 15.025C29.7606 14.925 29.9356 14.8 30.1189 14.65ZM26.3939 10.425C26.3939 10.275 26.3439 10.1667 26.2439 10.1C26.2273 10.0833 26.2023 10.075 26.1689 10.075C26.0856 10.075 26.0106 10.1333 25.9439 10.25C25.8773 10.35 25.8439 10.45 25.8439 10.55C25.8439 10.6333 25.8523 10.7333 25.8689 10.85C25.9023 10.95 25.9606 10.975 26.0439 10.925C26.1273 10.875 26.2023 10.8083 26.2689 10.725C26.3523 10.6417 26.3939 10.5417 26.3939 10.425Z" fill="black"/>
</svg>
