<svg width="56" height="56" viewBox="0 0 56 56" fill="none" xmlns="http://www.w3.org/2000/svg">
<path d="M28.2333 43.2833L28 43.5167L27.7433 43.2833C16.66 33.2267 9.33332 26.5767 9.33332 19.8333C9.33332 15.1667 12.8333 11.6667 17.5 11.6667C21.0933 11.6667 24.5933 14 25.83 17.1733H30.17C31.4067 14 34.9067 11.6667 38.5 11.6667C43.1667 11.6667 46.6667 15.1667 46.6667 19.8333C46.6667 26.5767 39.34 33.2267 28.2333 43.2833ZM38.5 7C34.44 7 30.5433 8.89 28 11.8533C25.4567 8.89 21.56 7 17.5 7C10.3133 7 4.66666 12.6233 4.66666 19.8333C4.66666 28.63 12.6 35.84 24.6167 46.7367L28 49.8167L31.3833 46.7367C43.4 35.84 51.3333 28.63 51.3333 19.8333C51.3333 12.6233 45.6867 7 38.5 7Z" fill="#FC0000"/>
</svg>
